<svg width="16" height="20" viewBox="0 0 16 20" fill="none" xmlns="http://www.w3.org/2000/svg">
<path fill-rule="evenodd" clip-rule="evenodd" d="M5 12C5 10.3431 6.34315 9 8 9C9.65685 9 11 10.3431 11 12C11 13.3062 10.1652 14.4175 9 14.8293V17H7V14.8293C5.83481 14.4175 5 13.3062 5 12ZM8 11C7.44772 11 7 11.4477 7 12C7 12.5523 7.44772 13 8 13C8.55228 13 9 12.5523 9 12C9 11.4477 8.55228 11 8 11Z" fill="black"/>
<path fill-rule="evenodd" clip-rule="evenodd" d="M2 6H0V20H16V6H14C14 2.68629 11.3137 0 8 0C4.68629 0 2 2.68629 2 6ZM4 6C4 3.79086 5.79086 2 8 2C10.2091 2 12 3.79086 12 6H4ZM2 18V8H14V18H2Z" fill="black"/>
</svg>
